# xmcd
#
# Track frame offsets:
#	150
#	9845
#	18675
#	30505
#	42855
#	58780
#	75610
#	93167
#	104815
#	114692
#	128137
#	139740
#	157472
#	169217
#	183607
#	193882
#	208767
#	220070
#	233925
#	244927
#
# Disc length: 3441 seconds
#
# Revision: 0
# Processed by: cddbd v1.5.1PL2 Copyright (c) Steve Scherf et al.
# Submitted via: dBpowerAMP V4.0
#
DISCID=260d6f14
DTITLE=Eddy Arnold - The Masters
DYEAR=1998
DGENRE=Country
TTITLE0=Misty Blue
TTITLE1=Here Comes My Baby Back Again
TTITLE2=A Thing Called Sadness
TTITLE3=Don't Touch Me
TTITLE4=With Pen In Hand
TTITLE5=Little Green Apples
TTITLE6=Honey
TTITLE7=Too Many Rivers
TTITLE8=What's He Doing In My World
TTITLE9=Tip Of My Fingers
TTITLE10=Gotta Travel On
TTITLE11=You Gave Me A Mountain
TTITLE12=Carolyn
TTITLE13=Born To Lose
TTITLE14=Tennessee Waltz
TTITLE15=Crying In The Chapel
TTITLE16=Sixteen Tons
TTITLE17=Bad News
TTITLE18=Understand Your Man
TTITLE19=She Thinks I Still Care
EXTD=
EXTT0=
EXTT1=
EXTT2=
EXTT3=
EXTT4=
EXTT5=
EXTT6=
EXTT7=
EXTT8=
EXTT9=
EXTT10=
EXTT11=
EXTT12=
EXTT13=
EXTT14=
EXTT15=
EXTT16=
EXTT17=
EXTT18=
EXTT19=
PLAYORDER=
